# xmcd
#
# Track frame offsets:
#	151
#	12377
#	25770
#	37588
#	49006
#	61945
#	74309
#	87335
#	99814
#	111743
#	123623
#	135174
#	147060
#	159054
#	171949
#	184571
#	197480
#	210699
#
# Disc length: 2961 seconds
#
# Revision: 1
# Processed by: cddbd v1.4PL0 Copyright (c) Steve Scherf et al.
# Submitted via: audiograbber 1.81.01
#
DISCID=e50b8f12
DTITLE=Champion Jack Dupree - Dupree Shake Dance
DYEAR=2001
DGENRE=Blues
TTITLE0=How Long Blues
TTITLE1=Mean Ole' Frisco
TTITLE2=Bad Whiskey And Bad Women
TTITLE3=Bus Station Blues
TTITLE4=Dupree Shake Dance
TTITLE5=Junker's Blues
TTITLE6=Angola Blues
TTITLE7=All Alone Blues
TTITLE8=Bad Health Blues
TTITLE9=Jackie Blues
TTITLE10=Chain Gang Blues
TTITLE11=Cabbage Greens
TTITLE12=Big Time Mama
TTITLE13=Warehouse Man Blues
TTITLE14=Morning Tea
TTITLE15=Black Woman Swing
TTITLE16=Weed Head Woman
TTITLE17=Heavy Heart Blues
EXTD=upped by walle.wahlgrren@swipnet.se
EXTT0=
EXTT1=
EXTT2=
EXTT3=
EXTT4=
EXTT5=
EXTT6=
EXTT7=
EXTT8=
EXTT9=
EXTT10=
EXTT11=
EXTT12=
EXTT13=
EXTT14=
EXTT15=
EXTT16=
EXTT17=
PLAYORDER=
